#!OML:ASF F:\VICON\USERDATA\INSTALL\Justin_Nancy\Justin_Nancy.ASF
:FULLY-SPECIFIED
:DEGREES
65
root 8.65233 17.7771 -9.03621 1.43796 -40.848 14.434
lowerback 9.43759 -2.06938 -7.80104
upperback -0.854276 -3.65867 -0.00805736
thorax -5.72189 -1.55844 4.88433
lowerneck -20.6358 -4.17894 -10.4096
upperneck 14.0046 -4.20587 8.26213
head 8.12017 -1.73689 3.93679
rclavicle 4.81059e-014 7.95139e-015
rhumerus -62.3789 7.15022 -91.1359
rradius 97.5153
rwrist -4.91255
rhand -15.8634 24.2713
rfingers 7.12502
rthumb 10.3319 -5.45488
lclavicle 4.81059e-014 7.95139e-015
lhumerus -43.7261 -12.3941 88.9941
lradius 108.644
lwrist 24.2383
lhand -19.864 6.68113
lfingers 7.12502
lthumb 6.47112 36.5623
rfemur -41.6941 0.247533 20.5109
rtibia 37.045
rfoot -8.38712 -2.77735
rtoes -8.18691
lfemur 9.59198 -9.95175 -24.4671
ltibia 23.8062
lfoot 27.1979 -14.8913
ltoes -15.6042
66
root 8.45613 17.7635 -8.72992 0.980886 -41.8577 14.9111
lowerback 9.42716 -1.86955 -7.99099
upperback -0.773302 -3.41563 -0.0960395
thorax -5.65897 -1.43987 4.86439
lowerneck -20.6428 -4.21236 -10.3023
upperneck 13.85 -4.23928 8.08189
head 8.06597 -1.76366 3.85035
rclavicle 3.24019e-014 4.77083e-015
rhumerus -62.1375 6.85288 -90.8273
rradius 97.5539
rwrist -4.82373
rhand -15.7669 24.3348
rfingers 7.12502
rthumb 10.4251 -5.38673
lclavicle 3.24019e-014 4.77083e-015
lhumerus -43.7246 -12.7655 89.5167
lradius 108.402
lwrist 23.8065
lhand -19.0181 7.29324
lfingers 7.12502
lthumb 7.28765 37.1477
rfemur -41.1231 0.360759 20.5022
rtibia 34.1838
rfoot -7.0611 -3.28565
rtoes -8.70664
lfemur 10.0356 -9.38744 -25.2078
ltibia 24.9806
lfoot 25.3288 -15.5547
ltoes -20.366
67
root 8.24571 17.7934 -8.42302 0.827001 -42.7526 14.8923
lowerback 9.51763 -1.67235 -7.71778
upperback -0.800942 -3.13458 -0.142943
thorax -5.79479 -1.30381 4.63177
lowerneck -20.2358 -4.14188 -10.0449
upperneck 13.6271 -4.20929 7.87538
head 7.90884 -1.76323 3.74029
rclavicle 4.59193e-014 7.95139e-016
rhumerus -62.0201 6.36535 -90.6086
rradius 97.5181
rwrist -4.35701
rhand -16.2276 24.2019
rfingers 7.12502
rthumb 9.98057 -5.5415
lclavicle 4.59193e-014 7.95139e-016
lhumerus -43.8848 -13.0383 89.8993
lradius 108.223
lwrist 23.9578
lhand -16.7385 7.37166
lfingers 7.12502
lthumb 9.48766 37.1381
rfemur -40.3781 0.686775 20.7242
rtibia 31.8759
rfoot -5.43048 -3.83921
rtoes -7.36858
lfemur 10.121 -9.27512 -25.4932
ltibia 26.456
lfoot 24.2927 -14.5506
ltoes -23.2278
68
root 8.03426 17.7984 -8.12622 0.428353 -43.4955 15.2557
lowerback 9.61179 -1.54526 -7.9619
upperback -0.824077 -3.00184 -0.109674
thorax -5.87796 -1.22577 4.79214
lowerneck -19.9432 -4.04752 -10.2081
upperneck 13.481 -4.07696 7.98498
head 7.80416 -1.70377 3.82147
rclavicle 5.08889e-014 -7.95139e-015
rhumerus -61.7357 6.14009 -90.2331
rradius 97.3659
rwrist -4.12368
rhand -16.3989 24.0298
rfingers 7.12502
rthumb 9.81528 -5.72141
lclavicle 5.08889e-014 -7.95139e-015
lhumerus -44.0791 -12.9537 90.4536
lradius 108.049
lwrist 23.7373
lhand -15.17 7.11925
lfingers 7.12502
lthumb 11.0008 36.811
rfemur -39.9016 1.13371 20.4826
rtibia 30.4672
rfoot -3.97732 -4.17703
rtoes -6.05087
lfemur 9.98611 -9.16595 -25.8892
ltibia 27.9858
lfoot 23.8303 -12.2184
ltoes -22.5936
69
root 7.83321 17.7643 -7.83267 -0.388704 -43.9864 16.3912
lowerback 9.55322 -1.53291 -8.77818
upperback -0.826703 -3.07695 -0.125092
thorax -5.80054 -1.24098 5.24097
lowerneck -19.9531 -4.01006 -10.594
upperneck 13.4307 -3.92655 8.06289
head 7.78419 -1.64462 3.93028
rclavicle -3.22031e-014 2.94201e-014
rhumerus -61.2715 6.29894 -89.8387
rradius 97.2426
rwrist -4.35292
rhand -16.1638 23.8429
rfingers 7.12502
rthumb 10.0422 -5.89755
lclavicle -3.22031e-014 2.94201e-014
lhumerus -44.2434 -12.7132 91.2036
lradius 107.86
lwrist 23.9886
lhand -15.5699 6.73697
lfingers 7.12502
lthumb 10.615 36.4489
rfemur -39.906 1.23499 19.6475
rtibia 29.9981
rfoot -3.22669 -4.48458
rtoes -6.99275
lfemur 9.96529 -8.76295 -26.8343
ltibia 29.2545
lfoot 23.5651 -12.1583
ltoes -19.4392
70
root 7.63633 17.7123 -7.53558 -1.44964 -44.3783 17.7796
lowerback 9.54349 -1.44772 -9.5356
upperback -0.848327 -3.0689 -0.359751
thorax -5.79862 -1.21716 5.41552
lowerneck -19.7697 -4.00798 -10.6582
upperneck 13.4286 -3.90236 7.94099
head 7.74866 -1.652 3.90272
rclavicle 4.37326e-015 1.19271e-014
rhumerus -60.7889 6.06855 -89.6201
rradius 97.0503
rwrist -4.6451
rhand -15.6923 23.9457
rfingers 7.12502
rthumb 10.497 -5.7722
lclavicle 4.37326e-015 1.19271e-014
lhumerus -44.5261 -13.2786 92.1338
lradius 107.945
lwrist 25.388
lhand -18.4819 7.4276
lfingers 7.12502
lthumb 7.80523 37.2635
rfemur -40.0471 1.31217 18.5279
rtibia 30.3144
rfoot -3.08309 -4.57817
rtoes -8.11695
lfemur 9.94585 -8.37994 -27.9875
ltibia 30.5332
lfoot 22.6184 -13.1421
ltoes -21.0665
